# AST/ASF file generated using VICON BodyLanguage
# -----------------------------------------------
:version 1.10
:name VICON
:units
  mass 1.0
  length 0.45
  angle deg
:documentation
   .ast/.asf automatically generated from VICON data using
   VICON BodyBuilder and BodyLanguage model FoxedUp or BRILLIANT.MOD
:root
   order TX TY TZ RX RY RZ
   axis XYZ
   position 0 0 0  
   orientation 0 0 0 
:bonedata
  begin
     id 1 
     name lhipjoint
     direction 0.584852 -0.759097 0.285867 
     length 2.43633 
     axis 0 0 0  XYZ
  end
  begin
     id 2 
     name lfemur
     direction 0.34202 -0.939693 0  
     length 7.14704  
     axis 0 0 20  XYZ
    dof rx ry rz
    limits (-160.0 20.0)
           (-70.0 70.0)
           (-60.0 70.0)
  end
  begin
     id 3 
     name ltibia
     direction 0.342022 -0.939692 0   
     length 7.68483   
     axis 0 0 20   XYZ
    dof rx
    limits (-10.0 170.0)
  end
  begin
     id 4 
     name lfoot
     direction 0.0999605 -0.274639 0.956337   
     length 2.40452   
     axis -90 7.62852e-016 20   XYZ
    dof rx rz
    limits (-45.0 90.0)
           (-70.0 20.0)
  end
  begin
     id 5 
     name ltoes
     direction 1.53468e-011 -4.21881e-011 1   
     length 1.19837   
     axis -90 7.62852e-016 20   XYZ
    dof rx
    limits (-90.0 20.0)
  end
  begin
     id 6 
     name rhipjoint
     direction -0.569886 -0.769002 0.289597   
     length 2.40495  
     axis 0 0 0  XYZ 
  end
  begin
     id 7 
     name rfemur
     direction -0.34202 -0.939693 0   
     length 7.45086   
     axis 0 0 -20   XYZ
    dof rx ry rz
    limits (-160.0 20.0)
           (-70.0 70.0)
           (-70.0 60.0)
  end
  begin
     id 8 
     name rtibia
     direction -0.34202 -0.939693 0   
     length 7.76831   
     axis 0 0 -20   XYZ
    dof rx
    limits (-10.0 170.0)
 end
 begin
     id 9 
     name rfoot
     direction -0.0798572 -0.219406 0.97236   
     length 2.35911  
     axis -90 -7.62852e-016 -20   XYZ
    dof rx rz
    limits (-45.0 90.0)
           (-20.0 70.0)
  end
  begin
     id 10 
     name rtoes
     direction -1.53469e-011 -4.21728e-011 1   
     length 1.18261   
     axis -90 -7.62852e-016 -20   XYZ
    dof rx
    limits (-90.0 20.0)
  end
  begin
     id 11 
     name lowerback
     direction 0.0242088 0.999437 0.0232389   
     length 2.1561   
     axis 0 0 0   XYZ
    dof rx ry rz
    limits (-20.0 45.0)
           (-30.0 30.0)
           (-30.0 30.0)
  end
  begin
     id 12 
     name upperback
     direction -0.0356893 0.999013 -0.0264323   
     length 2.14431   
     axis 0 0 0   XYZ
    dof rx ry rz
    limits (-20.0 45.0)
           (-30.0 30.0)
           (-30.0 30.0)
  end
  begin
     id 13 
     name thorax
     direction -0.0472163 0.998194 -0.0371284   
     length 2.16169   
     axis 0 0 0   XYZ
    dof rx ry rz
    limits (-20.0 45.0)
           (-30.0 30.0)
           (-30.0 30.0)
  end
  begin
     id 14 
     name lowerneck
     direction 0.00863244 0.999921 0.00911972   
     length 1.58651   
     axis 0 0 0   XYZ
    dof rx ry rz
    limits (-20.0 45.0)
           (-30.0 30.0)
           (-30.0 30.0)
  end
  begin
     id 15 
     name upperneck
     direction 0.149523 0.979068 -0.138086   
     length 1.57486   
     axis 0 0 0   XYZ
    dof rx ry rz
    limits (-20.0 45.0)
           (-30.0 30.0)
           (-30.0 30.0)
  end
  begin
     id 16
     name head
     direction 0.0445219 0.997708 -0.0509576  
     length 1.6019  
     axis 0 0 0   XYZ
    dof rx ry rz
    limits (-20.0 45.0)
           (-30.0 30.0)
           (-30.0 30.0)
  end
  begin
     id 17 
     name lclavicle
     direction 0.911271 0.381667 -0.154644  
     length 3.80848  
     axis 0 0 0   XYZ
    dof ry rz
    limits (-20.0 10.0)
           (0.0 20.0)
  end
  begin
     id 18 
     name lhumerus
     direction 1 -4.49003e-011 2.1308e-027   
     length 5.19069   
     axis 180 -30 -90   XYZ
    dof rx ry rz
    limits (-60.0 90.0)
           (-90.0 90.0)
           (-90.0 90.0)
  end
  begin
     id 19
     name lradius
     direction 1 -4.48914e-011 4.01554e-027   
     length 3.30016   
     axis 180 -30 -90   XYZ
    dof rx
    limits (-10.0 170.0)
  end
  begin
     id 20
     name lwrist
     direction 1 -4.49003e-011 1.1934e-026   
     length 1.65008   
     axis -8.46377e-015 90 90   XYZ
    dof ry
    limits (-180.0 0.0)
 end
  begin
     id 21 
     name lhand
     direction 1 -4.49034e-011 2.38659e-026   
     length 0.707698   
     axis -1.52313e-014 90 90   XYZ
    dof rx rz
    limits (-90.0 90.0)
           (-45.0 45.0)
  end
  begin
     id 22 
     name lfingers
     direction 1 -4.48691e-011 4.77775e-026   
     length 0.570564   
     axis -3.04623e-014 90 90   XYZ
    dof rx
    limits (0.0 90.0)
  end
  begin
     id 23
     name lthumb
     direction 0.707107 -6.34832e-011 0.707107   
     length 0.819219   
     axis -90 45 -1.62303e-014   XYZ
    dof rx rz
    limits (-45.0 45.0)
           (-45.0 45.0)
  end
  begin
     id 24 
     name rclavicle
     direction -0.815579 0.573708 -0.0754329   
     length 3.54371  
     axis 0 0 0   XYZ 
    dof ry rz
    limits (-10.0 20.0)
           (-20.0 0.0)
  end
  begin
     id 25 
     name rhumerus
     direction -1 -4.48956e-011 3.05351e-028  
     length 5.23924   
     axis 180 30 90   XYZ
    dof rx ry rz
    limits (-90.0 60.0)
           (-90.0 90.0)
           (-90.0 90.0)
  end
  begin
     id 26 
     name rradius
     direction -1 -4.49013e-011 3.53849e-027   
     length 3.32953   
     axis 180 30 90   XYZ
    dof rx
    limits (-10.0 170.0)
  end
  begin
     id 27 
     name rwrist
     direction -1 -4.48901e-011 1.19374e-026   
     length 1.66477   
     axis -8.46377e-015 -90 -90   XYZ
    dof ry
    limits (-180.0 0.0)
  end
  begin
     id 28
     name rhand
     direction -1 -4.48877e-011 2.38764e-026   
     length 0.607414   
     axis -1.52313e-014 -90 -90   XYZ
    dof rx rz
    limits (-90.0 90.0)
           (-45.0 45.0)
  end
  begin
     id 29
     name rfingers
     direction -1 -4.48882e-011 4.77521e-026   
     length 0.489712   
     axis -3.04623e-014 -90 -90   XYZ
    dof rx
    limits (0.0 90.0)
  end
  begin
     id 30
     name rthumb
     direction -0.707107 -6.34974e-011 0.707107   
     length 0.703132   
     axis -90 -45 1.62303e-014   XYZ
    dof rx rz
    limits (-45.0 45.0)
           (-45.0 45.0)
  end
:hierarchy
  begin
    root lhipjoint rhipjoint lowerback
    lhipjoint lfemur
    lfemur ltibia
    ltibia lfoot
    lfoot ltoes
    rhipjoint rfemur
    rfemur rtibia
    rtibia rfoot
    rfoot rtoes
    lowerback upperback
    upperback thorax
    thorax lowerneck lclavicle rclavicle
    lowerneck upperneck
    upperneck head
    lclavicle lhumerus
    lhumerus lradius
    lradius lwrist
    lwrist lhand lthumb
    lhand lfingers
    rclavicle rhumerus
    rhumerus rradius
    rradius rwrist
    rwrist rhand rthumb
    rhand rfingers
  end

#!OML:ASF E:\VariousWalksJay\Project 1\Capture day 1\Session 1\Actor2.ASF
:FULLY-SPECIFIED
:DEGREES
120
root 26.1931 17.2222 -30.2309 7.374 -32.8299 -2.03132
lowerback 6.48882 -1.87205 3.73013
upperback 9.05942 -2.47955 -1.5151
thorax 5.60474 -1.01202 -3.6333
lowerneck -7.00544 -2.39784 -3.27267
upperneck 7.88975 -3.77571 9.42908
head 3.74257 -1.53522 3.20931
rclavicle -5.12864e-014 1.66979e-014
rhumerus -33.4699 17.9798 -87.8362
rradius 64.8987
rwrist -4.26911
rhand -13.8664 -9.1197
rfingers 7.12502
rthumb 12.258 -38.7405
lclavicle -5.12864e-014 1.66979e-014
lhumerus -12.229 -29.2208 87.378
lradius 73.413
lwrist 64.2634
lhand -31.2999 16.5999
lfingers 7.12502
lthumb -4.57269 46.5305
rfemur -28.3292 0.226792 21.6764
rtibia 44.4838
rfoot -22.8116 -10.275
rtoes 0.817698
lfemur -25.5524 10.8866 -22.534
ltibia 40.0321
lfoot -21.0833 11.3701
ltoes -4.41439
121
root 26.2059 17.2109 -30.2415 7.33522 -32.8212 -2.01763
lowerback 6.63806 -1.85773 3.7866
upperback 9.19581 -2.45809 -1.54706
thorax 5.66793 -0.994624 -3.69766
lowerneck -7.00549 -2.39604 -3.16523
upperneck 7.9197 -3.78275 9.38412
head 3.74936 -1.53689 3.17734
rclavicle -7.11649e-014 3.61788e-014
rhumerus -33.2283 17.897 -87.816
rradius 65.0637
rwrist -4.32257
rhand -14.0603 -9.0787
rfingers 7.12502
rthumb 12.0709 -38.7105
lclavicle -7.11649e-014 3.61788e-014
lhumerus -11.8999 -29.4069 87.2326
lradius 73.4433
lwrist 64.2187
lhand -31.3068 16.5339
lfingers 7.12502
lthumb -4.57941 46.4644
rfemur -28.4843 0.226149 21.6492
rtibia 44.7227
rfoot -22.843 -10.3034
rtoes 0.739687
lfemur -25.7066 10.8876 -22.5756
ltibia 40.2645
lfoot -21.1406 11.3542
ltoes -4.39191
122
root 26.2187 17.1997 -30.2523 7.31446 -32.8118 -2.00397
lowerback 6.7686 -1.85385 3.84531
upperback 9.3229 -2.45069 -1.57908
thorax 5.73049 -0.984029 -3.7635
lowerneck -7.00878 -2.38695 -3.06945
upperneck 7.96202 -3.77987 9.3413
head 3.76002 -1.53353 3.14853
rclavicle 4.25399e-014 -2.78299e-015
rhumerus -33.0081 17.8537 -87.8072
rradius 65.2288
rwrist -4.36574
rhand -14.2484 -9.03048
rfingers 7.12502
rthumb 11.8896 -38.6729
lclavicle 4.25399e-014 -2.78299e-015
lhumerus -11.5944 -29.5644 87.0948
lradius 73.4695
lwrist 64.194
lhand -31.3596 16.3545
lfingers 7.12502
lthumb -4.63035 46.2839
rfemur -28.6582 0.228412 21.6217
rtibia 44.9581
rfoot -22.8713 -10.3364
rtoes 0.651985
lfemur -25.8829 10.8911 -22.6202
ltibia 40.4985
lfoot -21.1966 11.3307
ltoes -4.36643
123
root 26.2315 17.1886 -30.2633 7.31004 -32.8062 -1.98641
lowerback 6.91203 -1.84207 3.88112
upperback 9.43278 -2.43269 -1.59779
thorax 5.76946 -0.970733 -3.80183
lowerneck -7.01449 -2.38679 -2.99246
upperneck 8.00393 -3.78778 9.30729
head 3.77215 -1.53555 3.1249
rclavicle -3.61788e-014 5.04913e-014
rhumerus -32.8149 17.8106 -87.7807
rradius 65.391
rwrist -4.3961
rhand -14.4415 -8.99511
rfingers 7.12502
rthumb 11.7034 -38.6482
lclavicle -3.61788e-014 5.04913e-014
lhumerus -11.3086 -29.7402 86.9918
lradius 73.4909
lwrist 64.2088
lhand -31.4303 16.1594
lfingers 7.12502
lthumb -4.69866 46.0873
rfemur -28.8529 0.238058 21.5896
rtibia 45.1917
rfoot -22.8978 -10.3706
rtoes 0.572224
lfemur -26.0809 10.8995 -22.6726
ltibia 40.7321
lfoot -21.2494 11.3084
ltoes -4.3523
124
root 26.2442 17.1776 -30.2744 7.32365 -32.8007 -1.96826
lowerback 7.03466 -1.8392 3.9158
upperback 9.53794 -2.42716 -1.61478
thorax 5.8141 -0.963591 -3.83807
lowerneck -7.01128 -2.3819 -2.94397
upperneck 8.03126 -3.78698 9.29164
head 3.77868 -1.53385 3.11219
rclavicle 6.0033e-014 1.47101e-014
rhumerus -32.6293 17.8033 -87.7581
rradius 65.5447
rwrist -4.41765
rhand -14.6344 -8.96588
rfingers 7.12502
rthumb 11.5174 -38.6295
lclavicle 6.0033e-014 1.47101e-014
lhumerus -11.0443 -29.8757 86.8952
lradius 73.5157
lwrist 64.2451
lhand -31.5205 15.9025
lfingers 7.12502
lthumb -4.78571 45.8284
rfemur -29.0661 0.251438 21.5562
rtibia 45.4214
rfoot -22.9227 -10.4047
rtoes 0.496829
lfemur -26.3009 10.9111 -22.7302
ltibia 40.9635
lfoot -21.2929 11.2904
ltoes -4.36118
